<svg
  xmlns="http://www.w3.org/2000/svg"
  viewBox="0 0 20 20"
  fill="currentColor"
  class="w-8 h-8 cursor-pointer text-yellow-400"
>
  <path
    d="M9.049 2.927c.3-.921 1.603-.921 1.902 0l1.286 3.945a1
           1 0 00.95.69h4.15c.969 0 1.371 1.24.588
           1.81l-3.36 2.44a1 1 0 00-.364
           1.118l1.287 3.945c.3.921-.755
           1.688-1.54 1.118l-3.36-2.44a1
           1 0 00-1.175 0l-3.36 2.44c-.784.57-1.838-.197-1.539-1.118l1.287-3.945a1
           1 0 00-.364-1.118l-3.36-2.44c-.783-.57-.38-1.81.588-1.81h4.15a1
           1 0 00.95-.69l1.286-3.945z"
  />
</svg>
